<svg id="Capa_1" data-name="Capa 1" xmlns="http://www.w3.org/2000/svg" viewBox="0 0 16 16"><defs><style>.cls-1{fill:#fff;}</style></defs><path class="cls-1" d="M8,13.31A9.55,9.55,0,0,1,.16,8.56a1,1,0,0,1,0-1.12C2.32,4.38,5.09,2.69,8,2.69a9.64,9.64,0,0,1,7.85,4.76,1,1,0,0,1,0,1.1A9.56,9.56,0,0,1,8,13.31ZM8,3.63C5.41,3.63,2.91,5.17,1,8a8.53,8.53,0,0,0,7,4.39A8.64,8.64,0,0,0,15.05,8,8.63,8.63,0,0,0,8,3.63Z"/><path class="cls-1" d="M8,11.16A3.16,3.16,0,1,1,11.16,8,3.17,3.17,0,0,1,8,11.16ZM8,5.78A2.22,2.22,0,1,0,10.22,8,2.23,2.23,0,0,0,8,5.78Z"/></svg>