<svg id="Capa_1" data-name="Capa 1" xmlns="http://www.w3.org/2000/svg" viewBox="0 0 300 244"><defs><style>.cls-1{fill:#fff;}.cls-2{fill:#ffdc2e;}</style></defs><path class="cls-1" d="M6.38,232.45a14.41,14.41,0,0,1-4.82-2.11l3.66-5.71a13.63,13.63,0,0,0,4.09,1.91,17.35,17.35,0,0,0,5,.74q5,0,5.49-2.5a1.45,1.45,0,0,0-1.08-1.68,18.44,18.44,0,0,0-4.08-.87,36.87,36.87,0,0,1-5.35-1.17,6.79,6.79,0,0,1-3.38-2.34c-.88-1.13-1.13-2.72-.76-4.79a9,9,0,0,1,2.31-4.62,12.38,12.38,0,0,1,4.94-3.13,20.28,20.28,0,0,1,7-1.12,25.4,25.4,0,0,1,5.67.63,13.87,13.87,0,0,1,4.46,1.76l-3.65,5.66a13.91,13.91,0,0,0-7.54-2,8.94,8.94,0,0,0-3.95.71,2.69,2.69,0,0,0-1.6,1.84,1.48,1.48,0,0,0,1.07,1.78,21.07,21.07,0,0,0,4.21,1,42.15,42.15,0,0,1,5.29,1.2,6.49,6.49,0,0,1,3.31,2.32,5.82,5.82,0,0,1,.76,4.69,8.68,8.68,0,0,1-2.33,4.53,12.35,12.35,0,0,1-5,3.09,21.53,21.53,0,0,1-7.15,1.09A25,25,0,0,1,6.38,232.45Z"/><path class="cls-1" d="M57.8,206.81a9.9,9.9,0,0,1,4.05,4.95,13.8,13.8,0,0,1,.47,7.41,17.19,17.19,0,0,1-3.09,7.42,16.28,16.28,0,0,1-5.79,4.94,15.65,15.65,0,0,1-7.26,1.76q-5.25,0-7.68-3.31l-2.25,12.79H28.3l6.57-37.31h7.6l-.56,3.16a12.57,12.57,0,0,1,9.24-3.56A12.33,12.33,0,0,1,57.8,206.81ZM51.33,224.7a9.26,9.26,0,0,0,2.94-5.53,6.75,6.75,0,0,0-1-5.53,5.52,5.52,0,0,0-4.65-2.06,7.9,7.9,0,0,0-5.39,2.06,9.26,9.26,0,0,0-2.93,5.53,6.77,6.77,0,0,0,1,5.53A5.54,5.54,0,0,0,46,226.77,7.84,7.84,0,0,0,51.33,224.7Z"/><path class="cls-1" d="M70,231.48a10.37,10.37,0,0,1-4.49-5,12.59,12.59,0,0,1-.65-7.29,16.26,16.26,0,0,1,3.22-7.28,17.28,17.28,0,0,1,6.26-5,18.36,18.36,0,0,1,8.09-1.81,14.43,14.43,0,0,1,7.43,1.81,10.48,10.48,0,0,1,4.47,5,12.65,12.65,0,0,1,.65,7.28,16.36,16.36,0,0,1-3.22,7.29,17.39,17.39,0,0,1-6.24,5,18.21,18.21,0,0,1-8.07,1.81A14.56,14.56,0,0,1,70,231.48Zm14-6.78a9.26,9.26,0,0,0,2.94-5.53,6.82,6.82,0,0,0-1-5.53,5.56,5.56,0,0,0-4.66-2.06,8,8,0,0,0-5.41,2.06,9.24,9.24,0,0,0-3,5.53,6.7,6.7,0,0,0,1,5.53,5.59,5.59,0,0,0,4.68,2.07A7.87,7.87,0,0,0,84,224.7Z"/><path class="cls-1" d="M113,206.08a15.62,15.62,0,0,1,5.76-1l-1.3,7.34c-.87-.07-1.46-.11-1.76-.11A8.55,8.55,0,0,0,110,214.2a9.3,9.3,0,0,0-3,5.74l-2.28,12.95h-8l4.83-27.43h7.6l-.64,3.62A11.28,11.28,0,0,1,113,206.08Z"/><path class="cls-1" d="M136.85,231.56a9.94,9.94,0,0,1-3.11,1.3,15.42,15.42,0,0,1-3.67.43q-4.89,0-7.13-2.49t-1.38-7.34l2-11.27h-4.23l1.08-6.11h4.23l1.18-6.68h8l-1.18,6.68h6.83l-1.07,6.11H131.5l-2,11.16A3.28,3.28,0,0,0,130,226a2.77,2.77,0,0,0,2.35.94,5.89,5.89,0,0,0,3.39-1Z"/><path class="cls-1" d="M143.71,232.45a14.41,14.41,0,0,1-4.82-2.11l3.65-5.71a13.81,13.81,0,0,0,4.1,1.91,17.35,17.35,0,0,0,5,.74q5,0,5.48-2.5A1.43,1.43,0,0,0,156,223.1a18.19,18.19,0,0,0-4.07-.87,36.57,36.57,0,0,1-5.35-1.17,6.82,6.82,0,0,1-3.39-2.34c-.87-1.13-1.12-2.72-.76-4.79a9,9,0,0,1,2.32-4.62,12.31,12.31,0,0,1,4.94-3.13,20.28,20.28,0,0,1,7-1.12,25.4,25.4,0,0,1,5.67.63,13.87,13.87,0,0,1,4.46,1.76l-3.65,5.66a13.91,13.91,0,0,0-7.54-2,8.94,8.94,0,0,0-3.95.71,2.66,2.66,0,0,0-1.6,1.84,1.49,1.49,0,0,0,1.06,1.78,21.21,21.21,0,0,0,4.22,1,42.15,42.15,0,0,1,5.29,1.2,6.49,6.49,0,0,1,3.31,2.32,5.78,5.78,0,0,1,.75,4.69,8.59,8.59,0,0,1-2.32,4.53,12.42,12.42,0,0,1-5,3.09,21.53,21.53,0,0,1-7.15,1.09A25,25,0,0,1,143.71,232.45Z"/><path class="cls-1" d="M200.46,205.46l-4,22.84q-1.32,7.55-5.9,11.21t-12.11,3.67a26.72,26.72,0,0,1-7.38-1,13.3,13.3,0,0,1-5.41-2.8l4.16-5.71a10.49,10.49,0,0,0,4,2.27,16,16,0,0,0,5.15.84,9.94,9.94,0,0,0,6.42-1.86,9,9,0,0,0,3-5.63l.21-1.17a13.2,13.2,0,0,1-9.27,3.41,12.83,12.83,0,0,1-6.61-1.66,9.7,9.7,0,0,1-4.15-4.66,11.92,11.92,0,0,1-.61-6.93,15.24,15.24,0,0,1,3.06-6.93,16.49,16.49,0,0,1,13-6.32q6,0,8.38,3.92l.62-3.52Zm-13,17.72a7.78,7.78,0,0,0,2.88-4.87,5.48,5.48,0,0,0-1.16-4.87,6.2,6.2,0,0,0-4.84-1.86,8.69,8.69,0,0,0-5.53,1.86,7.65,7.65,0,0,0-2.9,4.87,5.43,5.43,0,0,0,1.18,4.87A6.29,6.29,0,0,0,182,225,8.57,8.57,0,0,0,187.47,223.18Z"/><path class="cls-1" d="M207.5,231.48a10.37,10.37,0,0,1-4.49-5,12.68,12.68,0,0,1-.65-7.29,16.26,16.26,0,0,1,3.22-7.28,17.37,17.37,0,0,1,6.26-5,18.39,18.39,0,0,1,8.09-1.81,14.43,14.43,0,0,1,7.43,1.81,10.43,10.43,0,0,1,4.47,5,12.65,12.65,0,0,1,.65,7.28,16.25,16.25,0,0,1-3.22,7.29,17.39,17.39,0,0,1-6.24,5,18.2,18.2,0,0,1-8.06,1.81A14.59,14.59,0,0,1,207.5,231.48Zm14-6.78a9.26,9.26,0,0,0,2.94-5.53,6.75,6.75,0,0,0-1-5.53,5.56,5.56,0,0,0-4.66-2.06,8,8,0,0,0-5.41,2.06,9.29,9.29,0,0,0-3,5.53,6.7,6.7,0,0,0,1,5.53,5.62,5.62,0,0,0,4.69,2.07A7.86,7.86,0,0,0,221.49,224.7Z"/><path class="cls-1" d="M234.08,231.87a4.2,4.2,0,0,1-.8-3.57,5.68,5.68,0,0,1,2.05-3.54,5.81,5.81,0,0,1,3.75-1.36,4.14,4.14,0,0,1,3.28,1.36,4,4,0,0,1,.81,3.54,6,6,0,0,1-2.06,3.57,5.68,5.68,0,0,1-3.77,1.42A4,4,0,0,1,234.08,231.87Z"/><path class="cls-1" d="M264,231.56a9.94,9.94,0,0,1-3.11,1.3,15.42,15.42,0,0,1-3.67.43q-4.89,0-7.13-2.49t-1.38-7.34l2-11.27h-4.23l1.07-6.11h4.23L253,199.4h7.95l-1.18,6.68h6.83l-1.07,6.11h-6.83l-2,11.16a3.28,3.28,0,0,0,.42,2.68,2.77,2.77,0,0,0,2.35.94,5.94,5.94,0,0,0,3.4-1Z"/><path class="cls-1" d="M300,205.46l-16.41,27.43h-8.2l-6.68-27.43h8.2l4.31,18.66,11.13-18.66Z"/><polygon class="cls-2" points="196.52 0 99.57 0 83.59 31.36 180.53 31.36 196.52 0"/><polygon class="cls-1" points="0 135.91 96.95 135.91 112.93 104.55 15.98 104.55 0 135.91"/><polygon class="cls-1" points="7.64 0.15 143.97 135.62 188.62 135.91 52.29 0.45 7.64 0.15"/><polygon class="cls-2" points="213.06 0.05 299.56 43.83 299.66 79.03 213.16 35.25 213.06 0.05"/><polygon class="cls-1" points="299.66 56.98 213.16 100.76 213.06 135.96 299.56 92.18 299.66 56.98"/></svg>