<svg id="Capa_1" data-name="Capa 1" xmlns="http://www.w3.org/2000/svg" viewBox="0 0 225 33"><defs><style>.cls-1{fill:#fff;}.cls-2{fill:#ffdc2e;}</style></defs><path class="cls-1" d="M93,20.89a6.4,6.4,0,0,1-2.17-.95l1.64-2.57a5.93,5.93,0,0,0,1.84.86,7.52,7.52,0,0,0,2.24.34c1.51,0,2.33-.38,2.46-1.13a.63.63,0,0,0-.48-.75,7.57,7.57,0,0,0-1.83-.39,17,17,0,0,1-2.41-.53,3.08,3.08,0,0,1-1.52-1,2.66,2.66,0,0,1-.34-2.16,3.93,3.93,0,0,1,1-2.07,5.31,5.31,0,0,1,2.22-1.41,9,9,0,0,1,3.15-.51,11.39,11.39,0,0,1,2.55.29,5.92,5.92,0,0,1,2,.79l-1.64,2.54a6.28,6.28,0,0,0-3.39-.91,3.93,3.93,0,0,0-1.78.32,1.15,1.15,0,0,0-.71.82.67.67,0,0,0,.47.81,10.39,10.39,0,0,0,1.9.43,19.37,19.37,0,0,1,2.38.54,3,3,0,0,1,1.49,1,2.64,2.64,0,0,1,.34,2.11,3.93,3.93,0,0,1-1,2,5.5,5.5,0,0,1-2.25,1.39,9.68,9.68,0,0,1-3.22.49A10.85,10.85,0,0,1,93,20.89Z"/><path class="cls-1" d="M116.15,9.36A4.36,4.36,0,0,1,118,11.59a6.18,6.18,0,0,1,.22,3.33,8,8,0,0,1-1.39,3.34,7.52,7.52,0,0,1-2.61,2.22,7,7,0,0,1-3.27.79,4,4,0,0,1-3.45-1.49l-1,5.76h-3.58l3-16.78h3.42L109,10.18a6.11,6.11,0,0,1,7.14-.82Zm-2.91,8.05a4.15,4.15,0,0,0,1.32-2.49,3,3,0,0,0-.44-2.49,2.51,2.51,0,0,0-2.09-.92,3.59,3.59,0,0,0-2.43.92,4.26,4.26,0,0,0-1.32,2.49,3.06,3.06,0,0,0,.45,2.49,2.48,2.48,0,0,0,2.09.93A3.51,3.51,0,0,0,113.24,17.41Z"/><path class="cls-1" d="M121.64,20.46a4.66,4.66,0,0,1-2-2.26,5.67,5.67,0,0,1-.29-3.28,7.3,7.3,0,0,1,1.44-3.28,7.78,7.78,0,0,1,2.82-2.25,8.19,8.19,0,0,1,3.64-.82,6.44,6.44,0,0,1,3.34.82,4.67,4.67,0,0,1,2,2.25,5.68,5.68,0,0,1,.29,3.28,7.27,7.27,0,0,1-1.45,3.28,7.82,7.82,0,0,1-2.8,2.26,8.25,8.25,0,0,1-3.63.81A6.57,6.57,0,0,1,121.64,20.46Zm6.29-3.05a4.15,4.15,0,0,0,1.32-2.49,3.06,3.06,0,0,0-.44-2.49,2.52,2.52,0,0,0-2.1-.92,3.61,3.61,0,0,0-2.43.92A4.11,4.11,0,0,0,123,14.92a3,3,0,0,0,.45,2.49,2.53,2.53,0,0,0,2.11.93A3.53,3.53,0,0,0,127.93,17.41Z"/><path class="cls-1" d="M141,9a7.15,7.15,0,0,1,2.59-.46l-.58,3.3-.8,0a3.83,3.83,0,0,0-2.56.86,4.16,4.16,0,0,0-1.32,2.58l-1,5.82H133.7l2.18-12.33h3.42L139,10.38A5.18,5.18,0,0,1,141,9Z"/><path class="cls-1" d="M151.7,20.49a4.39,4.39,0,0,1-1.39.59,7,7,0,0,1-1.65.19,4.1,4.1,0,0,1-3.21-1.12,3.75,3.75,0,0,1-.62-3.3l.89-5.07h-1.9L144.3,9h1.91l.53-3h3.57l-.53,3h3.07l-.48,2.75H149.3l-.89,5A1.51,1.51,0,0,0,148.6,18a1.26,1.26,0,0,0,1.06.42,2.65,2.65,0,0,0,1.53-.46Z"/><path class="cls-1" d="M154.79,20.89a6.58,6.58,0,0,1-2.17-.95l1.65-2.57a5.93,5.93,0,0,0,1.84.86,7.45,7.45,0,0,0,2.23.34c1.52,0,2.34-.38,2.47-1.13a.64.64,0,0,0-.48-.75,7.56,7.56,0,0,0-1.84-.39,17.09,17.09,0,0,1-2.4-.53,3.11,3.11,0,0,1-1.53-1,2.7,2.7,0,0,1-.34-2.16,4.08,4.08,0,0,1,1-2.07,5.44,5.44,0,0,1,2.22-1.41,9.13,9.13,0,0,1,3.15-.51,11.39,11.39,0,0,1,2.55.29,6.06,6.06,0,0,1,2,.79l-1.64,2.54a6.28,6.28,0,0,0-3.39-.91,3.91,3.91,0,0,0-1.78.32,1.19,1.19,0,0,0-.72.82.67.67,0,0,0,.48.81,10.45,10.45,0,0,0,1.89.43,18.94,18.94,0,0,1,2.38.54,2.92,2.92,0,0,1,1.49,1,2.6,2.6,0,0,1,.34,2.11,3.85,3.85,0,0,1-1,2A5.63,5.63,0,0,1,161,20.78a9.68,9.68,0,0,1-3.22.49A11,11,0,0,1,154.79,20.89Z"/><path class="cls-1" d="M180.32,8.76,178.51,19a8,8,0,0,1-2.66,5,8.45,8.45,0,0,1-5.45,1.65,12,12,0,0,1-3.31-.44A6,6,0,0,1,164.65,24l1.87-2.56a5,5,0,0,0,1.79,1,7.31,7.31,0,0,0,2.32.37,4.52,4.52,0,0,0,2.89-.83,4,4,0,0,0,1.33-2.54l.09-.52a5.93,5.93,0,0,1-4.17,1.53,5.84,5.84,0,0,1-3-.74,4.44,4.44,0,0,1-1.87-2.1,5.36,5.36,0,0,1-.27-3.12A6.88,6.88,0,0,1,167,11.41a7.51,7.51,0,0,1,5.84-2.84,4.06,4.06,0,0,1,3.77,1.77l.28-1.58Zm-5.84,8a3.5,3.5,0,0,0,1.29-2.19,2.47,2.47,0,0,0-.52-2.19,2.82,2.82,0,0,0-2.18-.83,4,4,0,0,0-2.49.83,3.47,3.47,0,0,0-1.3,2.19,2.44,2.44,0,0,0,.53,2.19,2.81,2.81,0,0,0,2.19.84A3.88,3.88,0,0,0,174.48,16.72Z"/><path class="cls-1" d="M183.48,20.46a4.71,4.71,0,0,1-2-2.26,5.67,5.67,0,0,1-.29-3.28,7.43,7.43,0,0,1,1.45-3.28,7.78,7.78,0,0,1,2.82-2.25,8.16,8.16,0,0,1,3.64-.82,6.46,6.46,0,0,1,3.34.82,4.77,4.77,0,0,1,2,2.25,5.76,5.76,0,0,1,.29,3.28,7.38,7.38,0,0,1-1.45,3.28,7.86,7.86,0,0,1-2.81,2.26,8.21,8.21,0,0,1-3.62.81A6.63,6.63,0,0,1,183.48,20.46Zm6.3-3.05a4.26,4.26,0,0,0,1.32-2.49,3.06,3.06,0,0,0-.45-2.49,2.5,2.5,0,0,0-2.09-.92,3.64,3.64,0,0,0-2.44.92,4.22,4.22,0,0,0-1.33,2.49,3,3,0,0,0,.46,2.49,2.51,2.51,0,0,0,2.1.93A3.55,3.55,0,0,0,189.78,17.41Z"/><path class="cls-1" d="M195.44,20.63a1.84,1.84,0,0,1-.36-1.6,2.54,2.54,0,0,1,.92-1.6,2.64,2.64,0,0,1,1.69-.61,1.87,1.87,0,0,1,1.47.61,1.81,1.81,0,0,1,.36,1.6,2.65,2.65,0,0,1-.92,1.6,2.54,2.54,0,0,1-1.7.64A1.78,1.78,0,0,1,195.44,20.63Z"/><path class="cls-1" d="M208.91,20.49a4.44,4.44,0,0,1-1.4.59,6.9,6.9,0,0,1-1.65.19,4.09,4.09,0,0,1-3.2-1.12,3.75,3.75,0,0,1-.62-3.3l.89-5.07H201L201.51,9h1.9l.53-3h3.58L207,9h3.07l-.48,2.75h-3.07l-.89,5a1.51,1.51,0,0,0,.19,1.21,1.26,1.26,0,0,0,1.06.42,2.62,2.62,0,0,0,1.52-.46Z"/><path class="cls-1" d="M225.09,8.76l-7.38,12.33H214L211,8.76h3.69l1.94,8.39,5-8.39Z"/><polygon class="cls-2" points="46.25 0 23.44 0 19.67 7.38 42.49 7.38 46.25 0"/><polygon class="cls-1" points="0 31.99 22.82 31.99 26.58 24.61 3.76 24.61 0 31.99"/><polygon class="cls-1" points="1.8 0.04 33.88 31.92 44.39 31.99 12.31 0.1 1.8 0.04"/><polygon class="cls-2" points="50.15 0.01 70.51 10.31 70.53 18.6 50.17 8.3 50.15 0.01"/><polygon class="cls-1" points="70.53 13.41 50.17 23.71 50.15 32 70.51 21.7 70.53 13.41"/></svg>