<svg id="Capa_1" data-name="Capa 1" xmlns="http://www.w3.org/2000/svg" viewBox="0 0 16 16"><defs><style>.cls-1{fill:#fff;}</style></defs><path class="cls-1" d="M0,6.4A1.62,1.62,0,0,0,1.19,8a1.54,1.54,0,0,0-.12.61h0a1.65,1.65,0,0,0,1.56,1.66l4.07.32a8.64,8.64,0,0,1-.56,1.81c-.11.26-.21.52-.31.81a1.65,1.65,0,0,0,1.64,2.3.53.53,0,0,0,.47-.3c.1-.2.51-.8.94-1.43.6-.88,1.35-2,1.85-2.83.76-1.33,1.08-2,1.16-2.14a.54.54,0,0,1,.44-.24h1A2.67,2.67,0,0,0,16,5.87V4.27A2.68,2.68,0,0,0,13.33,1.6h-2A5.39,5.39,0,0,0,8,.53,9,9,0,0,0,5.84.72,2.1,2.1,0,0,0,5.38.64L3.21.53h0a1.61,1.61,0,0,0-1.6,1.6,1.63,1.63,0,0,0,.11.59A1.63,1.63,0,0,0,.53,4.27a1.6,1.6,0,0,0,.21.78A1.63,1.63,0,0,0,0,6.4Zm1.6-.53,3.71.06c.11,0,.56.06.56.47s-.45.46-.56.47L1.6,6.93a.53.53,0,1,1,0-1.06Zm.53,2.69A.54.54,0,0,1,2.66,8L5.3,8.1c.57.06.57.34.57.47C5.87,9,5.4,9,5.3,9l-2.64.14a.62.62,0,0,1-.53-.6Zm8.76-6a.51.51,0,0,0,.31.11h2.13a1.59,1.59,0,0,1,1.6,1.6v1.6a1.6,1.6,0,0,1-1.6,1.6h-1A1.59,1.59,0,0,0,11,8.23l0,.06s-.3.63-1.14,2.08c-.47.83-1.21,1.9-1.8,2.77l-.82,1.22a.49.49,0,0,1-.31-.2.7.7,0,0,1,0-.64c.09-.26.19-.52.29-.77a8.6,8.6,0,0,0,.65-2.25,1,1,0,0,0-.24-.73A.77.77,0,0,0,7,9.51l-.38,0a1.51,1.51,0,0,0,.3-.91,1.42,1.42,0,0,0-.45-1.09,1.51,1.51,0,0,0,0-2.14,1.45,1.45,0,0,0,.44-1.07A1.49,1.49,0,0,0,6.5,3.2a1.52,1.52,0,0,0,.43-1.07,1.64,1.64,0,0,0-.07-.49c.29,0,.66,0,1.14,0A4.43,4.43,0,0,1,10.89,2.56Zm-7.7-1,2.11.1c.57.05.57.26.57.43a.49.49,0,0,1-.54.47l-2.14.07a.54.54,0,0,1-.52-.54A.53.53,0,0,1,3.19,1.6ZM2.13,3.73l3.19.07c.2,0,.55.09.55.47,0,.19-.1.43-.56.46L2.13,4.8a.53.53,0,0,1-.53-.53A.55.55,0,0,1,2.13,3.73Z"/></svg>