<svg id="Capa_1" data-name="Capa 1" xmlns="http://www.w3.org/2000/svg" viewBox="0 0 16 16"><defs><style>.cls-1{fill:#fff;}</style></defs><path class="cls-1" d="M8.11,0A8,8,0,1,0,16,7.89,8,8,0,0,0,8.11,0ZM13,12.59a.14.14,0,0,1-.21,0l0,0a4.81,4.81,0,0,0-1.25-1.13,6.52,6.52,0,0,0-3.49-1,6.52,6.52,0,0,0-3.49,1,4.81,4.81,0,0,0-1.25,1.13.14.14,0,0,1-.21,0H3a6.77,6.77,0,1,1,9.94,0Z"/><path class="cls-1" d="M8,3.69a2.64,2.64,0,0,0-1.93.8,2.62,2.62,0,0,0-.68,2A2.84,2.84,0,0,0,8,9.23a2.84,2.84,0,0,0,2.61-2.74A2.56,2.56,0,0,0,8,3.69Z"/></svg>